<?xml version="1.0" standalone="no"?>
<!DOCTYPE svg PUBLIC "-//W3C//DTD SVG 20010904//EN"
 "http://www.w3.org/TR/2001/REC-SVG-20010904/DTD/svg10.dtd">
<svg version="1.0" xmlns="http://www.w3.org/2000/svg"
 width="300.000000pt" height="300.000000pt" viewBox="0 0 300.000000 300.000000"
 preserveAspectRatio="xMidYMid meet">
<metadata>
Created by potrace 1.10, written by Peter Selinger 2001-2011
</metadata>
<g transform="translate(0.000000,300.000000) scale(0.100000,-0.100000)"
fill="#000000" stroke="none">
<path d="M1349 2990 c-107 -13 -289 -68 -289 -88 0 -2 10 -20 21 -39 16 -25
26 -32 38 -27 212 94 556 97 751 6 68 -33 158 -121 189 -186 32 -69 51 -166
51 -261 -1 -94 -11 -148 -45 -230 -22 -52 -33 -65 -82 -95 -55 -34 -209 -177
-250 -233 -21 -27 -53 -29 -53 -2 0 7 40 84 90 171 49 87 90 164 90 170 0 9
-69 49 -75 42 -1 -2 -43 -77 -94 -168 -112 -203 -104 -192 -124 -184 -15 5
-17 31 -17 240 l0 234 -50 0 -50 0 0 -234 c0 -209 -2 -235 -17 -240 -20 -8
-12 -19 -124 184 -51 91 -93 166 -94 168 -5 6 -75 -32 -75 -41 0 -5 41 -82 90
-171 50 -89 90 -166 90 -173 0 -25 -32 -23 -53 4 -42 57 -185 192 -240 227
-42 27 -63 49 -81 85 -93 183 -67 456 56 596 l31 36 -32 32 -32 32 -35 -40
c-19 -22 -51 -73 -71 -112 l-36 -72 -36 27 c-122 95 -261 132 -403 107 -94
-16 -114 -27 -127 -67 -52 -161 -18 -338 91 -479 l28 -37 -75 -36 c-133 -63
-227 -185 -270 -351 -28 -109 -40 -273 -27 -397 10 -101 32 -211 44 -223 6 -7
78 17 78 26 0 4 -8 38 -17 76 -12 48 -17 115 -17 228 -1 177 15 274 62 375 33
68 121 158 186 189 107 50 285 66 401 36 150 -39 315 -146 419 -274 51 -63 57
-73 45 -89 -7 -9 -14 -19 -16 -21 -1 -2 -75 37 -165 87 -90 49 -173 95 -185
101 -19 10 -24 7 -44 -25 -18 -30 -19 -38 -8 -45 8 -5 91 -52 186 -105 99 -54
170 -100 168 -107 -2 -7 -6 -24 -9 -39 l-6 -28 -235 0 -235 0 0 -50 0 -50 234
0 c215 0 235 -1 240 -17 2 -10 7 -28 11 -40 5 -19 -12 -31 -167 -117 -95 -52
-179 -100 -187 -105 -11 -7 -10 -15 8 -45 20 -32 25 -35 44 -25 12 6 96 52
186 102 130 72 165 87 172 76 14 -22 12 -25 -44 -91 -115 -136 -279 -247 -417
-283 -78 -21 -245 -16 -325 9 -76 23 -154 75 -201 133 l-42 51 -33 -20 c-19
-11 -36 -22 -38 -24 -2 -2 13 -26 33 -53 43 -58 111 -110 190 -147 l56 -26
-28 -36 c-65 -85 -96 -160 -111 -268 -10 -64 6 -191 28 -232 13 -24 53 -39
138 -50 121 -17 236 12 350 88 l71 47 37 -74 c66 -133 188 -226 350 -268 110
-29 273 -40 401 -27 64 6 118 13 121 15 2 2 0 22 -5 43 l-8 39 -60 -5 c-122
-10 -318 -4 -394 13 -205 46 -326 161 -365 344 -19 90 -19 211 1 286 18 71 67
172 87 180 35 13 173 136 228 202 54 66 63 73 80 62 10 -6 19 -16 19 -22 0 -5
-40 -82 -90 -171 -49 -89 -90 -166 -90 -171 0 -9 70 -47 75 -41 1 2 43 77 94
168 112 203 104 192 124 184 15 -5 17 -31 17 -240 l0 -234 50 0 50 0 0 234 c0
209 2 235 17 240 20 8 12 19 124 -184 51 -91 93 -166 94 -168 5 -6 75 32 75
41 0 5 -40 82 -90 171 -49 89 -90 166 -90 171 0 6 9 16 19 22 17 11 26 4 81
-63 59 -69 156 -156 224 -200 58 -37 106 -184 106 -322 -1 -207 -77 -355 -222
-432 -35 -18 -65 -34 -66 -36 -10 -8 22 -74 35 -74 26 0 127 59 181 106 38 33
63 68 93 128 l41 83 71 -47 c118 -77 228 -105 350 -88 124 17 137 26 157 114
34 146 -5 310 -102 435 l-27 36 75 37 c174 87 265 242 295 506 12 101 6 256
-13 355 -6 33 -12 61 -13 63 -2 2 -22 -2 -45 -9 -35 -11 -40 -16 -36 -33 17
-62 28 -214 22 -312 -14 -249 -90 -405 -235 -483 -110 -59 -287 -78 -415 -45
-132 34 -300 149 -413 282 -56 66 -58 69 -44 91 7 11 40 -4 162 -71 85 -47
168 -93 186 -102 l32 -16 22 36 c18 30 20 38 8 45 -8 5 -92 53 -187 105 -145
80 -172 99 -167 115 18 65 -8 59 251 59 l234 0 0 50 0 50 -234 0 -235 0 -6 23
c-4 12 -9 29 -11 39 -4 12 36 38 168 112 95 52 179 100 187 105 12 7 10 15 -8
45 l-22 36 -32 -16 c-18 -9 -101 -55 -185 -101 -84 -47 -154 -84 -155 -82 -2
2 -9 12 -16 21 -12 16 -6 26 45 89 104 128 269 235 419 274 114 29 301 13 400
-35 60 -29 131 -94 162 -148 15 -26 27 -48 28 -49 1 -2 20 5 43 14 l42 16 -26
47 c-48 88 -108 146 -199 191 l-84 42 27 36 c109 142 143 320 91 479 -13 40
-33 51 -127 67 -129 23 -263 -9 -377 -89 l-64 -44 -35 74 c-81 171 -244 267
-501 294 -102 11 -190 11 -286 0z m-698 -359 c36 -18 86 -52 110 -77 l44 -45
-3 -87 c-3 -78 12 -192 33 -244 7 -17 4 -17 -41 -2 -32 11 -93 17 -178 19
l-128 3 -43 42 c-68 67 -108 158 -113 257 -6 106 3 151 31 163 12 6 67 9 122
7 90 -2 107 -6 166 -36z m2001 21 c9 -9 13 -47 13 -125 0 -107 -2 -115 -33
-178 -18 -36 -53 -85 -76 -108 l-43 -42 -124 -3 c-71 -1 -142 -8 -167 -16 -23
-7 -45 -10 -49 -7 -3 4 0 26 8 49 8 25 14 94 15 166 l2 124 33 35 c43 45 100
81 164 105 60 22 235 22 257 0z m-1042 -893 c181 -82 228 -311 92 -453 -111
-115 -293 -115 -404 0 -106 111 -105 286 3 393 78 78 211 104 309 60z m-775
-936 c-21 -53 -36 -167 -33 -245 l3 -87 -44 -45 c-24 -25 -74 -60 -110 -78
-63 -31 -71 -33 -178 -33 -79 0 -116 4 -125 13 -9 9 -13 46 -13 125 0 107 2
115 33 178 18 36 53 85 77 109 l43 42 123 3 c79 1 140 8 169 18 60 20 63 20
55 0z m1430 -10 c42 -9 105 -13 157 -11 l87 3 41 -40 c86 -84 124 -183 118
-315 -2 -56 -8 -94 -16 -102 -9 -9 -47 -13 -125 -13 -107 0 -115 2 -178 33
-36 18 -85 53 -109 77 l-42 43 -3 128 c-2 85 -8 146 -19 178 -15 45 -15 48 2
41 9 -4 49 -13 87 -22z"/>
</g>
</svg>
