<?xml version="1.0" standalone="no"?>
<!DOCTYPE svg PUBLIC "-//W3C//DTD SVG 20010904//EN"
 "http://www.w3.org/TR/2001/REC-SVG-20010904/DTD/svg10.dtd">
<svg version="1.0" xmlns="http://www.w3.org/2000/svg"
 width="500.000000pt" height="500.000000pt" viewBox="0 0 500.000000 500.000000"
 preserveAspectRatio="xMidYMid meet">
<metadata>
Created by potrace 1.10, written by Peter Selinger 2001-2011
</metadata>
<g transform="translate(0.000000,500.000000) scale(0.100000,-0.100000)"
fill="#000000" stroke="none">
<path d="M2609 4977 c-58 -38 -69 -74 -69 -221 l0 -130 -158 156 c-127 126
-165 158 -194 163 -26 5 -73 -3 -172 -29 -340 -90 -624 -221 -898 -417 -182
-130 -182 -122 -7 -470 71 -144 128 -263 126 -266 -3 -2 -122 55 -266 126
-312 157 -327 160 -397 86 -91 -95 -269 -389 -349 -575 -52 -120 -115 -307
-115 -339 0 -42 27 -76 218 -271 100 -102 182 -186 182 -187 0 -2 -89 -3 -197
-3 -217 0 -245 -6 -287 -63 -18 -25 -20 -41 -18 -175 2 -161 14 -228 62 -329
74 -159 198 -280 356 -346 88 -37 135 -48 258 -57 102 -8 206 -33 206 -48 0
-4 -196 -203 -435 -442 -306 -306 -438 -445 -446 -468 -33 -100 63 -196 163
-163 23 8 162 140 468 446 239 239 438 435 442 435 16 0 40 -105 48 -210 10
-129 27 -195 75 -292 86 -176 252 -312 445 -364 94 -26 345 -26 383 -1 58 38
62 53 67 278 l5 206 199 -193 c232 -226 224 -222 355 -179 131 42 294 110 411
172 119 62 336 204 400 261 37 33 43 44 47 88 5 48 0 60 -127 313 -72 145
-129 265 -127 268 3 2 122 -55 266 -126 349 -175 340 -175 473 11 195 276 329
566 414 898 25 94 33 146 29 170 -5 27 -39 67 -163 192 l-156 158 135 0 c150
0 181 10 219 72 19 32 20 53 20 908 0 829 -1 877 -18 909 -10 19 -34 43 -53
53 -32 17 -80 18 -910 18 l-876 0 -34 -23z m1431 -245 c0 -4 -664 -671 -1475
-1482 l-1474 -1474 -75 37 c-91 45 -208 77 -286 77 -78 0 -153 15 -217 45 -74
34 -167 124 -203 199 -30 62 -56 167 -46 192 4 11 66 14 321 16 l317 3 28 32
c38 43 47 93 25 142 -10 24 -119 140 -290 311 l-273 273 18 51 c30 85 88 216
137 306 55 103 155 260 165 260 4 0 183 -88 398 -195 415 -207 434 -214 500
-180 16 9 36 29 45 45 34 66 28 85 -180 500 -107 214 -195 393 -195 397 0 24
291 189 453 257 112 47 348 126 376 126 9 0 124 -108 256 -240 131 -132 252
-245 267 -251 42 -17 96 -3 135 36 l33 33 0 239 c0 132 3 243 7 246 9 10 1233
9 1233 -1z m198 -809 l-3 -618 -248 -5 -249 -5 -28 -32 c-34 -38 -47 -92 -31
-131 6 -15 119 -136 251 -267 132 -132 240 -247 240 -257 0 -32 -91 -298 -140
-409 -71 -160 -221 -419 -243 -419 -4 0 -183 88 -397 195 -415 208 -434 214
-500 180 -16 -9 -36 -29 -45 -45 -34 -66 -27 -85 180 -499 107 -215 195 -394
195 -399 0 -10 -97 -74 -213 -140 -91 -52 -262 -131 -353 -162 l-50 -18 -270
268 c-262 262 -319 310 -363 310 -40 0 -90 -28 -111 -62 -19 -31 -20 -50 -20
-336 0 -250 -2 -304 -14 -308 -25 -10 -130 15 -193 46 -73 36 -165 131 -200
206 -27 60 -43 136 -43 213 0 81 -25 173 -72 274 l-42 88 1475 1475 c810 811
1477 1474 1482 1474 4 0 6 -278 5 -617z"/>
</g>
</svg>
