<?xml version="1.0" standalone="no"?>
<!DOCTYPE svg PUBLIC "-//W3C//DTD SVG 20010904//EN"
 "http://www.w3.org/TR/2001/REC-SVG-20010904/DTD/svg10.dtd">
<svg version="1.0" xmlns="http://www.w3.org/2000/svg"
 width="300.000000pt" height="300.000000pt" viewBox="0 0 300.000000 300.000000"
 preserveAspectRatio="xMidYMid meet">
<metadata>
Created by potrace 1.10, written by Peter Selinger 2001-2011
</metadata>
<g transform="translate(0.000000,300.000000) scale(0.100000,-0.100000)"
fill="#000000" stroke="none">
<path d="M1462 2984 c-21 -15 -22 -20 -22 -195 0 -98 -3 -179 -6 -179 -3 0
-83 45 -178 100 -95 55 -183 100 -194 100 -28 0 -62 -34 -62 -60 0 -32 23 -48
237 -170 l203 -115 0 -173 0 -174 -67 48 c-38 26 -117 83 -176 126 -114 83
-149 94 -181 59 -15 -16 -16 -44 -14 -255 3 -207 1 -236 -12 -231 -8 3 -79 43
-157 88 l-143 81 0 247 c0 222 -2 247 -17 262 -29 25 -63 26 -87 1 -14 -13
-16 -48 -16 -225 0 -115 -3 -209 -6 -209 -4 0 -74 38 -155 85 -82 47 -158 85
-169 85 -25 0 -60 -34 -60 -59 0 -32 29 -55 173 -136 76 -43 136 -82 135 -87
-2 -5 -78 -52 -168 -105 -91 -52 -171 -99 -178 -105 -15 -13 -16 -52 -2 -79
22 -40 64 -24 274 98 111 64 206 116 212 116 10 0 242 -128 288 -159 17 -12
-3 -24 -185 -114 -222 -109 -247 -129 -219 -175 10 -17 79 -56 219 -125 182
-90 202 -102 185 -114 -46 -31 -278 -159 -288 -159 -6 0 -101 52 -212 116
-200 117 -244 133 -272 105 -7 -7 -12 -27 -12 -45 0 -38 -1 -37 217 -163 79
-45 143 -85 143 -90 0 -4 -62 -43 -137 -86 -144 -80 -173 -103 -173 -135 0
-25 35 -59 60 -59 11 0 87 38 169 85 81 47 151 85 155 85 3 0 6 -93 6 -207 0
-115 4 -213 8 -219 4 -6 18 -17 31 -24 20 -10 27 -9 50 8 l26 19 3 250 2 249
153 87 c84 48 155 87 157 87 3 0 4 -106 2 -236 -2 -211 -1 -239 14 -255 32
-35 67 -24 181 59 59 43 138 100 176 126 l67 48 0 -174 0 -173 -203 -115
c-214 -122 -237 -138 -237 -170 0 -26 34 -60 62 -60 11 0 99 45 194 100 95 55
175 100 178 100 3 0 7 -82 8 -182 l3 -182 28 -16 c24 -13 30 -13 55 0 l27 16
3 182 c1 100 5 182 8 182 2 0 83 -45 179 -100 96 -55 183 -100 195 -100 25 0
60 34 60 58 0 33 -23 50 -220 162 -107 62 -201 117 -208 124 -9 9 -12 54 -10
179 l3 166 173 -125 c182 -130 212 -143 246 -105 15 16 16 44 14 255 -2 130 0
236 4 236 3 0 74 -39 157 -87 l151 -87 2 -250 3 -249 26 -19 c23 -17 30 -18
50 -8 13 7 27 18 31 24 4 6 8 104 8 219 0 114 3 207 6 207 4 0 74 -38 155 -85
82 -47 158 -85 169 -85 24 0 60 33 60 56 0 34 -25 55 -165 134 -80 45 -144 87
-143 92 2 5 78 52 168 105 91 52 171 99 178 105 15 13 16 52 2 79 -22 40 -64
24 -274 -98 -110 -64 -205 -116 -211 -116 -11 0 -242 127 -289 159 -17 12 3
24 185 114 304 150 304 151 0 301 -183 89 -202 101 -185 113 47 32 278 159
289 159 6 0 101 -52 211 -116 200 -117 244 -133 272 -105 16 16 15 73 0 86 -7
6 -87 53 -178 105 -90 53 -166 100 -168 105 -1 5 63 47 143 92 140 79 165 100
165 134 0 23 -36 56 -61 56 -11 0 -82 -36 -157 -79 -76 -44 -145 -83 -155 -87
-16 -6 -17 9 -17 202 0 115 -4 214 -8 220 -4 6 -18 17 -31 24 -20 10 -27 9
-50 -8 l-26 -19 -3 -249 -2 -250 -151 -87 c-83 -48 -154 -87 -157 -87 -4 0 -6
106 -4 236 2 211 1 239 -14 255 -32 35 -67 24 -181 -59 -59 -43 -138 -100
-175 -126 l-68 -48 0 174 0 173 203 115 c214 122 237 138 237 170 0 26 -34 60
-61 60 -11 0 -99 -45 -194 -100 -96 -55 -177 -100 -180 -100 -3 0 -5 81 -5
179 0 175 -1 180 -22 195 -12 9 -29 16 -38 16 -9 0 -26 -7 -38 -16z m-22
-1195 c0 -98 -2 -179 -5 -179 -3 0 -73 38 -154 85 l-148 86 -6 196 c-3 108 -4
200 -1 204 2 5 74 -42 159 -102 l155 -111 0 -179z m433 189 l-6 -197 -148 -86
c-81 -47 -151 -85 -154 -85 -3 0 -5 80 -5 179 l0 178 153 110 c83 61 155 107
159 104 4 -3 4 -95 1 -203z m-657 -385 c85 -49 154 -90 154 -93 0 -3 -69 -44
-154 -93 l-154 -87 -176 87 c-97 48 -176 90 -176 93 0 4 336 178 349 179 2 1
73 -38 157 -86z m899 0 c96 -48 175 -90 175 -93 0 -3 -79 -45 -176 -93 l-175
-88 -155 88 c-84 48 -154 90 -154 93 0 4 299 179 307 180 2 0 82 -39 178 -87z
m-675 -382 l0 -178 -155 -111 c-85 -61 -157 -107 -160 -103 -2 5 -2 96 2 204
l6 196 146 85 c80 47 149 85 154 86 4 0 7 -80 7 -179z m279 94 l148 -85 6
-197 c3 -108 4 -200 1 -204 -2 -4 -74 42 -159 103 l-155 111 0 178 c0 99 2
179 5 179 3 0 72 -38 154 -85z"/>
</g>
</svg>
