<?xml version="1.0" standalone="no"?>
<!DOCTYPE svg PUBLIC "-//W3C//DTD SVG 20010904//EN"
 "http://www.w3.org/TR/2001/REC-SVG-20010904/DTD/svg10.dtd">
<svg version="1.0" xmlns="http://www.w3.org/2000/svg"
 width="300.000000pt" height="300.000000pt" viewBox="0 0 300.000000 300.000000"
 preserveAspectRatio="xMidYMid meet">
<metadata>
Created by potrace 1.10, written by Peter Selinger 2001-2011
</metadata>
<g transform="translate(0.000000,300.000000) scale(0.100000,-0.100000)"
fill="#000000" stroke="none">
<path d="M1013 2980 c-35 -21 -47 -52 -58 -160 -4 -36 -16 -94 -27 -129 -17
-54 -30 -75 -81 -126 -101 -100 -211 -127 -377 -90 -103 23 -137 20 -171 -14
-45 -45 -40 -82 28 -208 54 -102 57 -111 61 -193 8 -167 -58 -264 -238 -355
-145 -73 -173 -112 -134 -187 12 -23 38 -41 120 -79 173 -81 243 -170 252
-321 5 -93 -8 -139 -73 -256 -53 -96 -57 -136 -20 -180 34 -40 59 -43 178 -20
130 25 198 20 282 -21 120 -59 176 -150 200 -325 8 -59 20 -116 25 -126 17
-31 52 -50 94 -50 37 0 46 7 130 93 97 100 145 129 239 148 43 9 71 9 114 0
94 -19 142 -48 239 -148 84 -86 94 -93 130 -93 42 0 77 19 94 50 5 10 17 67
25 126 25 175 80 266 201 325 83 41 157 46 287 21 115 -22 139 -20 172 20 38
45 33 80 -32 204 l-58 109 0 100 c0 86 4 107 25 150 40 81 102 135 222 193 83
39 110 58 122 81 39 74 12 112 -134 187 -181 92 -245 187 -238 351 3 77 6 89
61 195 67 132 72 165 28 209 -34 34 -68 37 -171 14 -166 -37 -276 -10 -377 90
-51 51 -64 72 -81 126 -11 35 -23 93 -27 129 -11 108 -23 139 -58 160 -38 24
-75 25 -103 5 -12 -7 -54 -48 -95 -90 -103 -106 -172 -140 -289 -140 -76 0
-93 4 -151 32 -45 23 -86 54 -135 105 -109 115 -137 127 -201 88z m269 -324
c184 -93 399 -60 561 84 31 28 57 48 57 43 1 -39 34 -152 61 -204 39 -79 136
-176 210 -212 106 -52 229 -69 324 -47 22 5 41 8 42 6 2 -2 -10 -32 -26 -67
-69 -154 -67 -300 7 -449 36 -72 132 -168 211 -209 l64 -34 -67 -35 c-240
-127 -334 -420 -210 -663 14 -28 23 -53 21 -55 -2 -3 -34 0 -71 6 -197 31
-417 -83 -509 -265 -18 -36 -44 -126 -52 -178 l-6 -39 -58 55 c-97 93 -207
137 -341 137 -134 0 -244 -44 -341 -137 l-58 -55 -6 39 c-10 58 -35 144 -52
178 -93 183 -311 296 -509 265 -37 -6 -69 -9 -71 -6 -2 2 7 27 21 55 123 243
31 536 -208 662 l-69 36 64 34 c242 127 337 427 213 672 -14 27 -24 51 -22 52
2 2 21 0 43 -5 251 -59 525 125 581 389 7 36 14 70 14 74 0 5 26 -14 58 -43
31 -28 87 -66 124 -84z"/>
<path d="M1397 2410 c-343 -42 -626 -292 -718 -635 -28 -103 -31 -296 -6 -398
76 -307 304 -540 615 -629 110 -32 314 -32 424 0 311 89 539 322 615 629 25
102 22 295 -6 398 -98 364 -401 615 -771 638 -47 3 -116 1 -153 -3z m235 -154
c95 -18 165 -47 247 -100 466 -301 413 -997 -93 -1226 -93 -42 -176 -60 -287
-60 -498 -1 -835 503 -646 967 85 210 283 373 507 418 87 18 183 18 272 1z"/>
</g>
</svg>
